<svg data-v-423bf9ae="" xmlns="http://www.w3.org/2000/svg" viewBox="0 0 531.1867571430606 60" class="font"><!----><!----><!----><g data-v-423bf9ae="" id="042a8a39-824d-4c49-bd3e-9a4dcdd9569d" fill="black" transform="matrix(4.979253427292024,0,0,4.979253427292024,-4.879670388743136,-18.77178580275637)"><path d="M9.25 15.37L7.03 11.42L6.72 10.89L6.65 10.77C8.68 10.32 9.73 8.82 9.73 7.35C9.73 6.38 9.28 5.46 8.51 4.82C7.73 4.14 6.62 3.79 5.35 3.79L1.26 3.79C1.11 3.79 0.98 3.92 0.98 4.06L0.98 5.17L1.12 5.42L1.12 5.43L2.98 8.71L0.98 8.71L0.98 15.54C0.98 15.69 1.11 15.82 1.26 15.82L2.90 15.82C3.04 15.82 3.16 15.69 3.16 15.54L3.16 10.89L4.21 10.89L4.51 11.42L6.90 15.65L6.93 15.69C6.97 15.76 7.06 15.82 7.15 15.82L9.03 15.82C9.18 15.82 9.30 15.69 9.30 15.53C9.30 15.48 9.30 15.44 9.27 15.40ZM5.19 8.19L3.95 5.98L5.35 5.98C6.86 5.98 7.53 6.69 7.53 7.35C7.53 7.91 7.03 8.53 5.89 8.68C5.77 8.69 5.63 8.71 5.49 8.71ZM19.33 15.54C19.33 15.69 19.21 15.82 19.07 15.82L11.41 15.82C11.26 15.82 11.13 15.69 11.13 15.54L11.13 4.06C11.13 3.91 11.26 3.78 11.41 3.78L18.79 3.78C18.94 3.78 19.07 3.91 19.07 4.06L19.07 5.70C19.07 5.85 18.94 5.96 18.79 5.96L13.31 5.96L13.31 8.71L18.51 8.71C18.66 8.71 18.79 8.82 18.79 8.97L18.79 10.61C18.79 10.77 18.66 10.89 18.51 10.89L13.31 10.89L13.31 13.62L19.07 13.62C19.21 13.62 19.33 13.75 19.33 13.90ZM26.14 9.79L29.05 15.37L29.06 15.40C29.08 15.43 29.09 15.47 29.09 15.51C29.09 15.68 28.97 15.81 28.81 15.81L26.96 15.81C26.87 15.81 26.78 15.75 26.74 15.67L26.73 15.64L24.91 12.15L23.10 15.64L23.09 15.67C23.04 15.75 22.95 15.81 22.85 15.81L21.01 15.81C20.86 15.81 20.73 15.68 20.73 15.51C20.73 15.47 20.75 15.43 20.76 15.40L20.78 15.37L23.67 9.79L20.79 4.24L20.75 4.14C20.73 4.12 20.73 4.09 20.73 4.06C20.73 4.02 20.75 3.98 20.76 3.93L20.78 3.91C20.82 3.82 20.90 3.77 21.01 3.77L22.85 3.77C22.96 3.77 23.04 3.84 23.10 3.92L24.91 7.41L26.73 3.92C26.77 3.84 26.87 3.77 26.96 3.77L28.81 3.77C28.91 3.77 28.99 3.82 29.05 3.91L29.06 3.93C29.08 3.98 29.09 4.02 29.09 4.06C29.09 4.09 29.08 4.12 29.08 4.14L29.02 4.24ZM46.93 8.79C46.89 8.74 46.83 8.71 46.76 8.71L42.92 8.71C42.77 8.71 42.66 8.83 42.66 8.99L42.66 10.63C42.66 10.78 42.77 10.89 42.92 10.89L44.84 10.89L44.84 12.95C43.18 14.11 40.87 13.76 39.62 12.12C38.33 10.44 38.65 8.04 40.33 6.76C41.66 5.75 43.44 5.74 44.76 6.61C44.86 6.66 44.98 6.66 45.07 6.59L46.42 5.56C46.55 5.46 46.56 5.29 46.47 5.17C46.47 5.15 46.45 5.14 46.44 5.12L46.40 5.10C44.30 3.42 41.24 3.32 39.02 5.03C36.37 7.04 35.87 10.82 37.88 13.45C39.54 15.62 42.41 16.35 44.84 15.41C45.36 15.20 45.85 14.94 46.31 14.59C46.54 14.41 46.75 14.22 46.94 14.03L46.94 14.01C47.00 13.97 47.03 13.90 47.03 13.82L47.03 8.99C47.03 8.90 47.00 8.85 46.93 8.79ZM54.10 15.82C50.78 15.82 48.08 13.12 48.08 9.80C48.08 6.48 50.78 3.78 54.10 3.78C57.41 3.78 60.12 6.48 60.12 9.80C60.12 13.12 57.41 15.82 54.10 15.82ZM54.10 5.96C51.98 5.96 50.26 7.69 50.26 9.80C50.26 11.91 51.98 13.62 54.10 13.62C56.21 13.62 57.92 11.91 57.92 9.80C57.92 7.69 56.21 5.96 54.10 5.96ZM68.32 5.68C68.32 5.84 68.17 5.96 67.98 5.96L65.31 5.96L65.31 15.47C65.31 15.65 65.18 15.81 65.04 15.81L63.39 15.81C63.25 15.81 63.13 15.65 63.13 15.47L63.13 5.96L60.40 5.96C60.24 5.96 60.12 5.84 60.12 5.68L60.12 4.05C60.12 3.89 60.24 3.78 60.40 3.78L67.98 3.78C68.17 3.78 68.32 3.89 68.32 4.05ZM83.62 4.79C82.80 4.13 81.66 3.78 80.33 3.78L76.51 3.78C76.36 3.78 76.23 3.91 76.23 4.06L76.23 5.18L78.39 8.69L76.23 8.69L76.23 15.53C76.23 15.68 76.36 15.81 76.51 15.81L78.15 15.81C78.30 15.81 78.41 15.68 78.41 15.53L78.41 10.89L80.36 10.89C81.68 10.88 82.81 10.54 83.62 9.88C84.45 9.23 84.91 8.30 84.91 7.34C84.91 6.36 84.45 5.43 83.62 4.79ZM79.28 5.96L80.33 5.96C81.90 5.96 82.73 6.65 82.73 7.34C82.73 7.92 82.11 8.51 80.92 8.67ZM94.51 15.37L92.29 11.42L91.98 10.89L91.91 10.77C93.94 10.32 94.99 8.82 94.99 7.35C94.99 6.38 94.54 5.46 93.77 4.82C92.99 4.14 91.88 3.79 90.61 3.79L86.52 3.79C86.37 3.79 86.24 3.92 86.24 4.06L86.24 5.17L86.38 5.42L86.38 5.43L88.24 8.71L86.24 8.71L86.24 15.54C86.24 15.69 86.37 15.82 86.52 15.82L88.16 15.82C88.30 15.82 88.42 15.69 88.42 15.54L88.42 10.89L89.47 10.89L89.77 11.42L92.16 15.65L92.19 15.69C92.23 15.76 92.32 15.82 92.41 15.82L94.29 15.82C94.44 15.82 94.56 15.69 94.56 15.53C94.56 15.48 94.56 15.44 94.53 15.40ZM90.45 8.19L89.21 5.98L90.61 5.98C92.12 5.98 92.79 6.69 92.79 7.35C92.79 7.91 92.29 8.53 91.15 8.68C91.03 8.69 90.89 8.71 90.75 8.71ZM101.64 15.82C98.32 15.82 95.62 13.12 95.62 9.80C95.62 6.48 98.32 3.78 101.64 3.78C104.96 3.78 107.66 6.48 107.66 9.80C107.66 13.12 104.96 15.82 101.64 15.82ZM101.64 5.96C99.53 5.96 97.80 7.69 97.80 9.80C97.80 11.91 99.53 13.62 101.64 13.62C103.75 13.62 105.46 11.91 105.46 9.80C105.46 7.69 103.75 5.96 101.64 5.96Z"></path></g><!----><!----></svg>