<?xml version="1.0" encoding="UTF-8" standalone="no"?>
<svg
   xmlns:dc="http://purl.org/dc/elements/1.1/"
   xmlns:cc="http://creativecommons.org/ns#"
   xmlns:rdf="http://www.w3.org/1999/02/22-rdf-syntax-ns#"
   xmlns:svg="http://www.w3.org/2000/svg"
   xmlns="http://www.w3.org/2000/svg"
   xmlns:sodipodi="http://sodipodi.sourceforge.net/DTD/sodipodi-0.dtd"
   xmlns:inkscape="http://www.inkscape.org/namespaces/inkscape"
   width="300"
   height="300"
   viewBox="0 0 300 300"
   fill="none"
   version="1.1"
   id="svg100"
   sodipodi:docname="Chat Icon-mini-rescale.svg"
   inkscape:version="1.0.2 (e86c8708, 2021-01-15)">
  <metadata
     id="metadata104">
    <rdf:RDF>
      <cc:Work
         rdf:about="">
        <dc:format>image/svg+xml</dc:format>
        <dc:type
           rdf:resource="http://purl.org/dc/dcmitype/StillImage" />
        <dc:title></dc:title>
      </cc:Work>
    </rdf:RDF>
  </metadata>
  <sodipodi:namedview
     pagecolor="#ffffff"
     bordercolor="#666666"
     borderopacity="1"
     objecttolerance="10"
     gridtolerance="10"
     guidetolerance="10"
     inkscape:pageopacity="0"
     inkscape:pageshadow="2"
     inkscape:window-width="1001"
     inkscape:window-height="676"
     id="namedview102"
     showgrid="false"
     inkscape:lockguides="false"
     inkscape:zoom="1.6514684"
     inkscape:cx="116.25"
     inkscape:cy="119.87838"
     inkscape:window-x="0"
     inkscape:window-y="23"
     inkscape:window-maximized="0"
     inkscape:current-layer="svg100"
     inkscape:document-rotation="0" />
  <g
     clip-path="url(#clip0)"
     id="g88"
     transform="translate(33.75,75)">
    <path
       d="M 136.15,0 H 58.9779 C 26.4134,0 0,26.2141 0,58.5328 0,80.0786 11.7335,98.9056 29.2046,109.063 v 37.346 L 72.5722,117.066 H 136.15 c 32.565,0 58.978,-26.2144 58.978,-58.5332 C 195.128,26.2141 168.715,0 136.15,0 Z"
       fill="url(#paint0_linear)"
       id="path76"
       style="fill:url(#paint0_linear)" />
    <path
       d="m 232.5,101.676 c 0,5.899 -1.602,11.491 -4.445,16.262 -2.792,4.771 -6.823,8.772 -11.631,11.542 V 150 l -23.828,-16.159 h -34.943 c -7.34,0 -14.163,-2.411 -19.59,-6.515 33.495,-0.924 61.149,-25.548 66.473,-57.5073 15.765,2.1546 27.964,15.5951 27.964,31.8573 z"
       fill="#999999"
       id="path78" />
    <path
       d="M 64.8198,39.1309 H 56.8775 L 45,72.5001 h 7.236 l 2.1766,-6.8612 h 12.9586 l 2.263,6.8612 h 7.2072 z m -8.591,20.8864 4.6559,-14.1982 4.627,14.1982 z"
       fill="#ffffff"
       id="path80" />
    <path
       d="m 108.726,54.4389 c 2.695,-1.254 3.992,-3.5315 3.992,-6.8756 0,-5.4198 -3.574,-8.4324 -10.493,-8.4324 H 86.4844 V 72.5002 H 101.72 c 7.885,0 12.166,-3.8054 12.166,-10.1478 0,-3.9207 -1.672,-6.5153 -5.16,-7.9135 z M 93.0861,44.9254 h 7.7839 c 3.315,0 4.93,0.8793 4.93,3.4739 0,2.5658 -1.586,3.6324 -4.872,3.6324 h -7.8419 z m 8.1149,21.5495 h -8.1149 v -8.7351 h 8.0719 c 3.806,0 5.578,1.1676 5.578,4.4252 0,3.0415 -1.772,4.3099 -5.535,4.3099 z"
       fill="#ffffff"
       id="path82" />
    <path
       d="m 140.48,39.1309 h -7.942 l -11.863,33.3693 h 7.236 l 2.176,-6.8613 h 12.959 l 2.278,6.8613 h 7.207 z m -8.576,20.8864 4.656,-14.1982 4.641,14.1982 z"
       fill="#ffffff"
       id="path84" />
    <path
       d="m 162.074,32.5 h -6.444 v 13.2613 h 6.444 z"
       fill="#ff0000"
       id="path86" />
  </g>
  <defs
     id="defs98">
    <linearGradient
       id="paint0_linear"
       x1="197.765"
       y1="186.149"
       x2="-46.193298"
       y2="119.042"
       gradientUnits="userSpaceOnUse">
      <stop
         stop-color="#3D859B"
         id="stop90" />
      <stop
         offset="1"
         stop-color="#005E7B"
         id="stop92" />
    </linearGradient>
    <clipPath
       id="clip0">
      <rect
         width="232.5"
         height="150"
         fill="#ffffff"
         id="rect95"
         x="0"
         y="0" />
    </clipPath>
  </defs>
</svg>
