<?xml version="1.0" encoding="utf-8"?>
<!-- Generator: Adobe Illustrator 22.0.0, SVG Export Plug-In . SVG Version: 6.00 Build 0)  -->
<svg version="1.1" id="Layer_1" xmlns="http://www.w3.org/2000/svg" xmlns:xlink="http://www.w3.org/1999/xlink" x="0px" y="0px"
	 viewBox="0 0 468.7 78.7" style="enable-background:new 0 0 468.7 78.7;" xml:space="preserve">
<style type="text/css">
	.st0{fill:#FFFFFF;}
	.st1{fill:#EC1E24;}
</style>
<g id="ABA-NBC_Long_Signage_1_">
	<g>
		<g>
			<g id="XMLID_4_">
				<g id="XMLID_18_">
					<g id="XMLID_19_">
						<path id="XMLID_25_" class="st0" d="M142.2,25.7h12.9c5.7,0,8.6,2.4,8.6,6.9c0,2.7-1,4.6-3.2,5.6c2.8,1.1,4.2,3.3,4.2,6.5
							c0,5.2-3.5,8.3-10,8.3h-12.5V25.7z M154,36.3c2.7,0,4-0.9,4-2.9c0-2.1-1.3-2.8-4-2.8h-6.4v5.8H154z M154.3,48.1
							c3.1,0,4.5-1,4.5-3.5c0-2.7-1.4-3.6-4.5-3.6h-6.6v7.1H154.3z"/>
						<path id="XMLID_22_" class="st0" d="M186.3,25.7l9.8,27.3h-5.8l-1.9-5.6h-10.6L176,53h-5.9l9.7-27.3H186.3z M179.3,42.8h7.6
							l-3.8-11.6L179.3,42.8z"/>
						<polygon id="XMLID_21_" class="st0" points="203.2,25.7 209.1,25.7 220.2,44.5 220.2,25.7 225.8,25.7 225.8,53 219.9,53 
							208.8,34.3 208.8,53 203.2,53 						"/>
						<polygon id="XMLID_20_" class="st0" points="236.6,25.7 242.2,25.7 242.2,36.9 252.8,25.7 259.9,25.7 249,36.8 260.9,53 
							254,53 245.1,40.5 242.2,43.4 242.2,53 236.6,53 						"/>
					</g>
				</g>
				<g id="XMLID_5_">
					<g id="XMLID_7_">
						<path id="XMLID_15_" class="st0" d="M44.5,25.7L54.3,53h-5.9l-1.9-5.6H36L34.2,53h-5.9L38,25.7H44.5z M37.5,42.8h7.6
							l-3.8-11.6L37.5,42.8z"/>
						<path id="XMLID_11_" class="st0" d="M62.2,25.7H75c5.6,0,8.6,2.5,8.6,6.9c0,2.7-1.1,4.6-3.3,5.6c2.8,1.1,4.2,3.3,4.2,6.5
							c0,5.2-3.5,8.3-9.9,8.3H62.2V25.7z M74,36.3c2.7,0,4-0.9,4-3c0-2.1-1.3-2.8-4-2.8h-6.4v5.8H74z M74.2,48.1
							c3.1,0,4.5-1,4.5-3.5c0-2.7-1.5-3.6-4.6-3.6h-6.6v7.1H74.2z"/>
						<path id="XMLID_8_" class="st0" d="M106.3,25.7l9.8,27.3h-5.9l-1.9-5.6H97.8L96,53h-5.9l9.7-27.3H106.3z M99.3,42.8h7.6
							l-3.8-11.6L99.3,42.8z"/>
					</g>
					<rect id="XMLID_6_" x="118.6" y="20.3" class="st1" width="5.3" height="10.8"/>
				</g>
			</g>
			<g>
				<g>
					<g id="XMLID_1_">
						<g id="XMLID_2_">
							<path id="XMLID_3_" class="st1" d="M310.6,32c-0.5,0.1-0.9,0.2-1.3,0.1c-0.3-0.1-0.5-0.4-0.7-0.7l-3.5-4.8
								c-0.2-0.3-0.4-0.6-0.7-0.7c-0.4-0.1-0.7-0.1-1.3,0.1L291.9,29v20.9l11.3-3.1c0.5-0.1,0.9-0.2,1.3-0.1
								c0.3,0.1,0.5,0.4,0.7,0.7l3.5,4.8c0.2,0.3,0.4,0.6,0.7,0.7c0.4,0.1,0.7,0.1,1.3-0.1l11.3-3V29L310.6,32z"/>
						</g>
						<g>
							<path class="st0" d="M403.2,36h3.3l0.6,1.8h2l-3.1-8.9h0l-2.6,1.3l-2.7,7.6h2L403.2,36z M404.8,31L404.8,31l1.1,3.5h-2.3
								L404.8,31z"/>
							<path class="st0" d="M399,33.1c0.4-0.2,1.1-0.5,1.1-1.8c0-0.9-0.6-2.3-2.7-2.3h-2.5l-1.9,0.9v8h3.8c1.8,0,2.3-0.3,2.8-0.8
								c0.5-0.5,0.8-1.1,0.8-1.8C400.4,34.3,400.1,33.5,399,33.1z M394.8,30.5h2.1c0.8,0,1.4,0.2,1.4,1c0,0.7-0.6,1-1.3,1h-2.2V30.5
								z M397.1,36.3h-2.3V34h2.4c0.7,0,1.3,0.3,1.3,1.1C398.5,35.9,398,36.3,397.1,36.3z"/>
							<polygon class="st0" points="417.1,37.9 417.1,29 415.4,29.8 415.4,35.2 415.3,35.2 411.8,29 409.8,29.9 409.8,37.9 
								411.6,37.9 411.6,31.5 411.6,31.5 415.2,37.9 							"/>
							<polygon class="st0" points="420.7,34.9 421.5,34 424.3,37.9 426.7,37.9 422.8,32.6 426.5,29 423.6,29.5 420.7,32.6 
								420.7,29 418.8,29.9 418.8,37.9 420.7,37.9 							"/>
							<path class="st0" d="M342.6,29l-2.6,1.3l-2.7,7.6h2l0.6-1.8h3.3l0.6,1.8h2L342.6,29L342.6,29z M340.3,34.5l1.1-3.5h0l1.1,3.5
								H340.3z"/>
							<path class="st0" d="M379,29l-2.6,1.3l-2.7,7.6h2l0.6-1.8h3.3l0.6,1.8h2L379,29L379,29z M376.7,34.5l1.1-3.5h0l1.1,3.5H376.7
								z"/>
							<polygon class="st0" points="349.2,37.9 349.2,30.5 351,30.5 351.9,29 345.5,29 344.6,30.5 344.6,30.5 347.3,30.5 
								347.3,37.9 							"/>
							<polygon class="st0" points="354.5,29 354.5,29 352.6,29.9 352.6,37.9 354.5,37.9 							"/>
							<path class="st0" d="M360,38.1c1.2,0,4.3-0.5,4.3-4.7c0-4.2-3.1-4.7-4.3-4.7c-0.1,0-0.2,0-0.3,0l-3.1,1.5
								c-0.5,0.7-0.9,1.7-0.9,3.2C355.7,37.6,358.8,38.1,360,38.1z M360,30.3c1,0,2.4,0.6,2.4,3.1c0,2.5-1.4,3.1-2.4,3.1
								c-1,0-2.4-0.6-2.4-3.1C357.6,30.9,359,30.3,360,30.3z"/>
							<polygon class="st0" points="330.9,31.5 330.9,31.5 334.5,37.9 336.4,37.9 336.4,29 334.6,29.8 334.6,35.2 334.6,35.2 
								331.1,29 329.1,29.9 329.1,37.9 330.9,37.9 							"/>
							<polygon class="st0" points="371,35.2 371,35.2 367.4,29 365.5,29.9 365.5,37.9 367.2,37.9 367.2,31.5 367.2,31.5 
								370.9,37.9 372.7,37.9 372.7,29 371,29.8 							"/>
							<polygon class="st0" points="389.3,36.3 384.9,36.3 384.9,29 383,29.9 383,37.9 388.4,37.9 							"/>
							<path class="st0" d="M361.3,41l-2.6,1.3l-2.7,7.6h2l0.6-1.8h3.3l0.6,1.8h2L361.3,41L361.3,41z M359.1,46.5l1.1-3.5h0l1.1,3.5
								H359.1z"/>
							<path class="st0" d="M395.6,41l-2.6,1.3l-2.7,7.6h2l0.6-1.8h3.3l0.6,1.8h2L395.6,41L395.6,41z M393.4,46.5l1.1-3.5h0l1.1,3.5
								H393.4z"/>
							<path class="st0" d="M378.9,41l-2.6,1.3l-2.7,7.6h2l0.6-1.8h3.3l0.6,1.8h2L378.9,41L378.9,41z M376.7,46.5l1.1-3.5h0l1.1,3.5
								H376.7z"/>
							<path class="st0" d="M354.2,46.8c-0.2,1.1-0.9,1.7-2,1.7c-1.6,0-2.2-1.4-2.2-3c0-2.5,1.3-3.1,2.2-3.1c1.5,0,1.8,1,2,1.5h1.9
								c-0.1-1.3-1.2-3.1-3.8-3.1c0,0-0.1,0-0.1,0l-3.1,1.5c-0.6,0.8-0.9,1.8-0.9,3.2c0,3.1,1.7,4.7,4.1,4.7c2.2,0,3.5-1.4,3.9-3.3
								H354.2z"/>
							<polygon class="st0" points="370.9,47.2 370.9,47.2 367.4,41 365.4,41.9 365.4,49.9 367.1,49.9 367.1,43.5 367.2,43.5 
								370.8,49.9 372.7,49.9 372.7,41 370.9,41.8 							"/>
							<path class="st0" d="M386.9,41h-2.1l-1.9,0.9v8h3.9c2.9,0,3.7-2.8,3.7-4.7C390.5,43.5,389.9,41,386.9,41z M386.6,48.3h-1.8
								v-5.8h1.8c0.8,0,2,0.2,2,2.8C388.6,46.8,388.1,48.3,386.6,48.3z"/>
							<polygon class="st0" points="344,42.6 344.9,41 340.5,41 338.5,41.9 338.5,49.9 340.4,49.9 340.4,46.1 343.4,46.1 
								344.3,44.6 340.4,44.6 340.4,42.6 							"/>
							<path class="st0" d="M333,40.8c-0.1,0-0.2,0-0.3,0l-3.1,1.5c-0.5,0.7-0.9,1.7-0.9,3.2c0,4.2,3.1,4.7,4.3,4.7
								c1.2,0,4.3-0.5,4.3-4.7C337.3,41.3,334.2,40.8,333,40.8z M333,48.6c-1,0-2.4-0.6-2.4-3.1c0-2.5,1.4-3.1,2.4-3.1
								c1,0,2.4,0.6,2.4,3.1C335.4,48,334,48.6,333,48.6z"/>
							<path class="st0" d="M423.9,40.8c-0.1,0-0.2,0-0.3,0l-3.1,1.5c-0.5,0.7-0.9,1.7-0.9,3.2c0,4.2,3.1,4.7,4.3,4.7
								s4.3-0.5,4.3-4.7C428.2,41.3,425.1,40.8,423.9,40.8z M423.9,48.6c-1,0-2.4-0.6-2.4-3.1c0-2.5,1.4-3.1,2.4-3.1
								c1,0,2.4,0.6,2.4,3.1C426.3,48,424.9,48.6,423.9,48.6z"/>
							<path class="st0" d="M406.3,46.6h2v1.1c-0.3,0.2-0.6,0.4-0.9,0.5c-0.4,0.1-0.7,0.2-1.1,0.2c-0.7,0-1.3-0.3-1.8-0.8
								c-0.5-0.5-0.7-1.3-0.7-2.4c0-1,0.2-1.7,0.7-2.2c0.4-0.5,1-0.7,1.8-0.7c0.5,0,0.9,0.1,1.2,0.4c0.3,0.2,0.6,0.6,0.7,1h1.7
								c0-0.8-0.5-1.8-1.1-2.3c-0.6-0.4-1.4-0.7-2.5-0.7c-0.2,0-0.3,0-0.5,0l-2.8,1.5c-0.1,0.2-0.3,0.4-0.4,0.6
								c-0.4,0.7-0.5,1.5-0.5,2.5c0,0.9,0.2,1.6,0.5,2.4c0.3,0.7,0.8,1.3,1.5,1.7c0.7,0.4,1.4,0.6,2.3,0.6c0.7,0,1.4-0.1,2.1-0.4
								c0.7-0.3,1.2-0.6,1.6-1v-3.5h-3.7V46.6z"/>
							<path class="st0" d="M417.2,46.7c-0.2-0.3-0.5-0.5-0.9-0.7c0.7-0.1,1.3-0.4,1.7-0.8c0.4-0.4,0.6-1,0.6-1.6
								c0-0.5-0.1-1-0.4-1.4c-0.3-0.4-0.6-0.7-1-0.8c-0.4-0.2-1.1-0.2-2-0.2h-1.8l-1.8,1v7.9h1.7v-3.7h0.3c0.4,0,0.7,0,0.9,0.1
								c0.2,0.1,0.4,0.2,0.5,0.4c0.2,0.2,0.5,0.6,0.9,1.3l1.2,1.9h2.1l-1-1.7C417.8,47.4,417.4,46.9,417.2,46.7z M414.6,44.7h-1.3
								v-2.3h1.3c0.7,0,1.1,0,1.2,0c0.3,0.1,0.5,0.2,0.6,0.3c0.2,0.2,0.2,0.4,0.2,0.7c0,0.3-0.1,0.5-0.2,0.7
								c-0.1,0.2-0.3,0.3-0.5,0.4C415.9,44.7,415.4,44.7,414.6,44.7z"/>
							<path class="st0" d="M434.4,45.9c0,0.7,0,1.2-0.1,1.5c-0.1,0.3-0.2,0.6-0.5,0.8c-0.2,0.2-0.6,0.3-1.1,0.3
								c-0.5,0-0.8-0.1-1.1-0.3c-0.3-0.2-0.5-0.5-0.5-0.9c0-0.2-0.1-0.7-0.1-1.5V41l-1.7,0.9v3.8c0,1,0,1.7,0.2,2.3
								c0.1,0.3,0.2,0.7,0.5,1c0.2,0.3,0.6,0.6,1,0.8c0.4,0.2,1,0.3,1.8,0.3c0.7,0,1.2-0.1,1.6-0.3c0.4-0.2,0.7-0.4,1-0.7
								c0.2-0.3,0.4-0.7,0.5-1.1c0.1-0.5,0.1-1.2,0.1-2.3V41l-1.7,0.9V45.9z"/>
							<path class="st0" d="M443.9,42c-0.3-0.5-0.7-0.7-1.2-0.9c-0.3-0.1-1-0.1-2-0.1h-0.9l-1.8,1v7.9h1.7v-3.3h1.1
								c0.8,0,1.4,0,1.8-0.1c0.3-0.1,0.6-0.2,0.9-0.4c0.3-0.2,0.5-0.5,0.7-0.9c0.2-0.4,0.3-0.8,0.3-1.4
								C444.4,43,444.2,42.4,443.9,42z M442.4,44.4c-0.1,0.2-0.3,0.3-0.5,0.4c-0.2,0.1-0.7,0.1-1.3,0.1h-0.9v-2.5h0.8
								c0.6,0,1,0,1.2,0.1c0.3,0.1,0.5,0.2,0.7,0.4c0.2,0.2,0.3,0.5,0.3,0.8C442.6,44,442.6,44.2,442.4,44.4z"/>
						</g>
					</g>
				</g>
				<rect x="275.6" y="18.4" class="st0" width="1.5" height="42"/>
			</g>
		</g>
	</g>
</g>
</svg>
